<svg xmlns:xlink="http://www.w3.org/1999/xlink" viewBox="0 0 10835.84 9196.44" style="shape-rendering:geometricPrecision; text-rendering:geometricPrecision; image-rendering:optimizeQuality; fill-rule:evenodd; clip-rule:evenodd" version="1.0" height="91.6541mm" width="107.993mm" xml:space="preserve" xmlns="http://www.w3.org/2000/svg">
 <defs>
  <style type="text/css">
   
    .fil1 {fill:#0070C0}
    .fil0 {fill:black}
    .fil2 {fill:#2B2B2A;fill-rule:nonzero}
   
  </style>
 </defs>
 <g id="Layer_x0020_1">
  <metadata id="CorelCorpID_0Corel-Layer"></metadata>
  <g id="_105553335203808">
   <g>
    <path d="M130.15 3520.66c0,308.12 11.85,561.52 242.4,819.96 77.49,86.91 185.07,173.26 290.21,228.31 23.76,12.4 35.27,19.63 65.3,35.53l293.4 124.81c214.76,65.03 400.98,101.41 576.2,159.96 29.68,9.92 53.67,14.04 80.34,20.7 55.79,14.04 109.92,36.03 158.87,57.52 412.15,181.38 126.96,530 -187.98,530 -269.7,0 -470.67,6.04 -735.75,-130.85 -70.26,-36.26 -136.7,-59.5 -201.77,-101.01 -100.35,-63.96 -198.87,-175.07 -290.32,-139.65 -39.55,15.29 -58.13,39.14 -83.14,75.87 -73.85,108.4 -337.9,501 -337.9,582.1 0,146.82 308.61,295.38 430.72,361.25 455.29,245.52 1100.83,315.39 1597.77,200.96l371.98 -132.94c242.8,-131.24 436.31,-286.52 553.13,-540.89 148.72,-323.73 150.78,-702.69 0.28,-1023.22 -181.2,-385.89 -765.43,-613.25 -1173.76,-699.71l-424.74 -123.74c-39.55,-18.44 -101.15,-57.02 -130.49,-85.62 -166.05,-161.82 -26.05,-448.55 337.22,-448.55 342.92,0 523.1,82.85 804.01,249.4 178.41,105.76 252.03,194.14 384.86,-17.37 37.95,-60.46 69.45,-105.87 106.78,-166.44 36.64,-59.5 67.3,-113.98 105.36,-167.8 91.8,-129.83 142.91,-221.03 4.33,-329.82 -152.66,-119.91 -262.46,-183.25 -431.41,-260.35 -173.22,-79.08 -64.79,-43.38 -247.59,-98.59 -367.82,-111.17 -449.59,-97.12 -842.08,-97.12 -140.63,0 -480.7,72.93 -610.9,139.81l-106.39 52.23c-250.61,145.46 -476.26,377.49 -549.53,659.04 -16.64,63.85 -49.4,205.13 -49.4,266.22z" class="fil0"></path>
    <path d="M7072.88 4380.15c0,353.8 43.42,623.73 180.4,895.64 109.18,216.64 234.25,400.9 414.89,563.17 192.65,173.14 114.25,96.84 272.54,217.14 162.86,123.8 492.55,253.47 690.05,290.63 254.09,47.77 575.41,78.51 832.57,28.43 224.74,-43.77 401.67,-67.57 616.14,-177.72 138.87,-71.29 496.14,-256.91 575.06,-376.25 66.16,-99.95 -1.3,-182.8 -83.47,-293.06 -58.75,-78.91 -250.04,-385.84 -313.52,-406.59 -65.53,-21.43 -148.89,39.93 -201.09,79.08 -157.5,118.16 -397.73,234 -601.05,264.18 -274.94,40.83 -452.44,49.29 -717.17,-55.28 -111.05,-43.88 -181.77,-85.39 -268.67,-163.67 -183.14,-164.98 -236.65,-247.09 -320.24,-470.73 -17.32,-46.36 -4.56,0.96 -19.44,-52.4 -67.07,-240.54 -32.19,-590.12 54.88,-802.81 82.91,-202.59 273.63,-407.95 475.11,-503.49 456.32,-216.47 997.36,-104.9 1394.53,173.89 242.85,170.5 267.01,-17.04 407.3,-194.36 26.32,-33.22 36.52,-42.58 62.34,-81.51 128.09,-193.39 257.67,-277.94 65.98,-426.5 -21.82,-16.93 -43.14,-28.43 -68.61,-46.65 -318.01,-227.07 -761.39,-437.95 -1163.29,-437.95 -209.29,0 -371.23,-13.25 -567.82,24.92 -412.32,80.09 -540.53,133.84 -881.57,344.5 -167.4,103.38 -376.87,323.73 -488.73,490 -32.88,48.84 -65.59,92.1 -96.42,148.06 -15.78,28.71 -27.12,46.87 -40.86,74.16 -82.56,163.9 -113.73,274.57 -163.82,453.69 -29.97,107.22 -46.04,307.56 -46.04,441.45z" class="fil0"></path>
    <path d="M3471.33 2689.82c0,703.43 -52.37,673.37 303.71,673.26l1576.57 0c-12.87,54.76 -57.84,136.49 -84.85,188.14 -32.36,62.05 -62.79,128.59 -92.7,194.65l-452.61 941.22c-33.5,74.11 -55.45,128.14 -91.06,196.33l-450.61 943.24c-249.98,559 -366.51,501.57 665.61,501.57 54.13,0 110.65,-11.56 145.36,-27.91 42.22,-19.86 60.91,-46.37 85.58,-87.08 71.68,-118.16 272.55,-580.99 335.57,-713.42l995.53 -2165.46c76.64,-157.92 318.29,-663.95 318.29,-744.82 0,-84.32 -23.42,-128.87 -188.03,-128.87l-2849.43 0c-189.3,0 -216.93,80.03 -216.93,229.15z" class="fil1"></path>
   </g>
   <path d="M839.81 696.62c5.81,-8.14 11.63,-12.79 17.44,-12.79 3.49,0 9.3,3.49 17.45,9.31 70.94,54.65 141.88,82.57 212.82,82.57 36.05,0 66.29,-4.66 93.04,-15.12 26.75,-10.47 46.52,-24.42 61.64,-44.19 13.96,-18.61 20.93,-40.71 20.93,-65.13 0,-24.42 -5.81,-44.19 -17.44,-59.31 -11.64,-15.12 -30.24,-29.08 -55.83,-40.71 -26.75,-10.47 -62.8,-22.09 -110.48,-34.89 -55.82,-13.96 -101.18,-30.23 -137.23,-48.84 -36.05,-18.6 -63.96,-43.03 -83.73,-73.27 -19.77,-29.08 -30.23,-66.29 -30.23,-111.65 0,-48.84 11.63,-90.71 36.05,-126.76 24.42,-36.06 56.98,-62.8 98.85,-82.58 40.7,-18.6 87.21,-27.9 139.55,-27.9 97.69,0 186.08,30.23 265.16,91.87 3.48,3.49 6.97,5.82 9.3,8.14 1.16,3.49 2.33,5.82 2.33,9.31 0,2.32 -1.16,4.65 -2.33,8.14 -1.16,3.49 -3.49,6.97 -5.82,10.47l-33.72 50.01c-3.49,4.66 -5.82,8.14 -8.14,9.3 -3.49,2.33 -5.82,3.49 -9.31,3.49 -5.81,0 -11.63,-2.33 -19.77,-8.14 -31.4,-22.1 -62.8,-40.71 -95.36,-53.5 -32.56,-12.79 -67.46,-19.77 -103.51,-19.77 -29.07,0 -55.82,4.65 -77.91,13.95 -23.26,10.48 -40.71,24.42 -53.5,41.87 -12.79,18.61 -19.77,40.71 -19.77,65.13 0,24.42 6.97,45.35 19.77,61.64 12.79,16.27 31.4,30.23 56.98,40.7 24.42,10.48 59.32,22.1 102.35,32.57 59.31,15.11 108.15,32.56 145.37,52.33 36.05,19.78 63.97,43.04 82.57,72.11 17.45,29.07 26.75,65.12 26.75,108.15 0,47.68 -12.79,90.71 -38.38,126.76 -25.59,37.22 -60.47,65.13 -105.83,84.9 -45.35,19.78 -96.53,30.24 -154.67,30.24 -52.34,0 -102.35,-9.3 -147.7,-26.75 -46.53,-17.44 -89.55,-41.86 -127.93,-73.27 -8.14,-8.14 -12.79,-13.96 -12.79,-19.77 0,-5.82 2.33,-11.63 8.15,-19.78l34.89 -48.84z" class="fil2"></path>
   <path d="M2014.42 779.2c3.48,5.81 4.65,10.47 4.65,16.27 0,8.15 -4.65,13.96 -12.79,19.78 -62.79,46.52 -137.22,69.78 -223.28,69.78 -58.16,0 -109.32,-12.79 -153.52,-39.54 -45.35,-25.59 -79.08,-60.47 -103.5,-105.83 -24.42,-45.35 -37.22,-95.36 -37.22,-150.03 0,-56.98 12.79,-109.32 37.22,-154.67 24.42,-45.36 59.31,-81.41 102.34,-108.15 43.04,-25.59 91.88,-38.38 146.53,-38.38 53.5,0 101.18,12.79 144.22,37.22 41.86,25.59 74.42,60.47 98.84,103.5 23.27,44.2 34.9,93.04 34.9,146.53l0 19.78c0,8.14 -1.16,12.79 -4.66,16.27 -3.49,3.49 -8.14,4.66 -15.12,4.66l-427.97 0c3.49,32.56 12.79,61.64 29.08,87.22 16.28,25.59 38.38,45.35 65.13,59.31 26.74,15.12 56.98,22.09 91.87,22.09 56.98,0 111.65,-17.44 163.98,-52.34 6.97,-4.65 12.79,-6.97 18.6,-6.97 5.82,0 11.63,3.49 15.12,10.47l25.59 43.04zm-81.41 -250.04c-6.97,-43.03 -24.42,-79.09 -52.33,-105.83 -29.08,-26.75 -63.97,-39.54 -107,-39.54 -40.7,0 -75.59,12.79 -104.66,37.22 -29.08,25.59 -50.01,61.64 -60.47,108.15l324.46 0z" class="fil2" id="1"></path>
   <path d="M2122.57 333.78c-3.49,-8.14 -5.82,-13.96 -5.82,-18.6 0,-8.15 6.97,-12.79 22.09,-12.79l69.79 0c10.47,0 18.6,2.32 24.42,5.81 4.65,3.49 10.47,12.79 16.27,25.59l174.45 346.57 172.12 -346.57c6.97,-12.79 12.79,-22.09 17.44,-25.59 4.66,-3.49 12.79,-5.81 23.27,-5.81l67.45 0c15.12,0 22.09,4.65 22.09,13.95 0,3.49 -2.33,9.31 -5.81,17.45l-257.02 502.41c-10.47,20.93 -18.61,34.89 -24.42,41.87 -5.82,6.97 -11.63,10.47 -17.45,10.47 -5.81,0 -11.63,-3.49 -17.44,-10.47 -5.82,-6.98 -13.96,-20.94 -24.42,-41.87l-257.02 -502.41z" class="fil2" id="2"></path>
   <path d="M3315.78 779.2c3.48,5.81 4.65,10.47 4.65,16.27 0,8.15 -4.65,13.96 -12.79,19.78 -62.79,46.52 -137.22,69.78 -223.28,69.78 -58.16,0 -109.32,-12.79 -153.52,-39.54 -45.35,-25.59 -79.08,-60.47 -103.5,-105.83 -24.42,-45.35 -37.22,-95.36 -37.22,-150.03 0,-56.98 12.79,-109.32 37.22,-154.67 24.42,-45.36 59.31,-81.41 102.34,-108.15 43.04,-25.59 91.88,-38.38 146.53,-38.38 53.5,0 101.18,12.79 144.22,37.22 41.86,25.59 74.42,60.47 98.84,103.5 23.27,44.2 34.9,93.04 34.9,146.53l0 19.78c0,8.14 -1.16,12.79 -4.66,16.27 -3.49,3.49 -8.14,4.66 -15.12,4.66l-427.97 0c3.49,32.56 12.79,61.64 29.08,87.22 16.28,25.59 38.38,45.35 65.13,59.31 26.74,15.12 56.98,22.09 91.87,22.09 56.98,0 111.65,-17.44 163.98,-52.34 6.97,-4.65 12.79,-6.97 18.6,-6.97 5.82,0 11.63,3.49 15.12,10.47l25.59 43.04zm-81.41 -250.04c-6.97,-43.03 -24.42,-79.09 -52.33,-105.83 -29.08,-26.75 -63.97,-39.54 -107,-39.54 -40.7,0 -75.59,12.79 -104.66,37.22 -29.08,25.59 -50.01,61.64 -60.47,108.15l324.46 0z" class="fil2" id="3"></path>
   <path d="M3498.35 331.45c0,-10.47 2.33,-17.44 6.98,-22.09 4.66,-4.66 11.63,-6.97 22.09,-6.97l53.5 0c10.47,0 17.44,2.32 23.26,6.97 4.65,4.66 6.97,11.63 6.97,22.09l0 36.05c18.61,-24.42 41.87,-44.19 70.94,-56.98 29.08,-12.79 60.48,-19.77 95.37,-19.77 73.27,0 130.25,23.26 168.63,68.61 38.38,46.52 56.98,112.81 56.98,198.87l0 293.07c0,8.14 -1.16,12.79 -4.65,16.27 -3.49,3.49 -8.15,4.66 -15.12,4.66l-72.1 0c-6.98,0 -11.63,-1.16 -15.12,-4.66 -3.49,-3.48 -5.82,-8.14 -5.82,-16.27l0 -284.93c0,-54.66 -11.63,-97.69 -36.05,-127.93 -24.42,-29.07 -58.15,-44.19 -103.5,-44.19 -44.2,0 -77.92,15.12 -102.35,44.19 -24.42,30.24 -37.22,73.27 -37.22,127.93l0 284.93c0,8.14 -1.16,12.79 -4.65,16.27 -3.49,3.49 -8.15,4.66 -15.12,4.66l-72.1 0c-8.15,0 -12.79,-1.16 -16.28,-4.66 -3.49,-3.48 -4.66,-8.14 -4.66,-16.27l0 -519.85z" class="fil2" id="4"></path>
   <path d="M4133.35 405.88c-10.48,0 -16.28,-2.33 -19.78,-5.81 -3.49,-3.49 -5.81,-10.48 -5.81,-19.78l0 -52.34c0,-9.3 2.32,-16.27 5.81,-19.77 3.49,-3.49 9.3,-5.81 19.78,-5.81l102.34 0 0 -127.93c0,-10.47 2.33,-17.45 5.82,-20.93 3.48,-3.49 10.47,-4.66 19.77,-4.66l60.47 0c9.3,0 16.28,1.16 19.78,4.66 3.48,3.48 5.81,10.47 5.81,20.93l0 127.93 103.51 0c10.47,0 17.44,2.32 20.93,5.81 3.49,3.49 4.66,10.47 4.66,19.77l0 52.34c0,9.3 -1.16,16.28 -4.66,19.78 -3.49,3.48 -10.47,5.81 -20.93,5.81l-103.51 0 0 440.77c0,10.47 -2.33,16.28 -5.81,19.77 -3.49,3.49 -10.48,5.82 -19.78,5.82l-60.47 0c-9.3,0 -16.28,-2.33 -19.77,-5.82 -3.49,-3.48 -5.82,-9.3 -5.82,-19.77l0 -440.77 -102.34 0z" class="fil2" id="5"></path>
   <path d="M4588.06 23.26c0,-8.14 2.33,-15.11 5.82,-18.6 3.49,-3.49 10.47,-4.66 18.6,-4.66l61.64 0c9.31,0 16.28,1.16 20.94,4.66 3.48,3.49 5.81,10.47 5.81,18.6l0 344.24c19.78,-24.42 43.04,-43.03 70.94,-56.98 27.91,-12.79 59.32,-19.77 95.37,-19.77 73.27,0 130.25,23.26 168.63,68.61 38.38,46.52 56.98,112.81 56.98,198.87l0 293.07c0,8.14 -1.16,12.79 -4.65,16.27 -3.49,3.49 -8.15,4.66 -15.12,4.66l-72.1 0c-6.98,0 -11.63,-1.16 -15.12,-4.66 -3.49,-3.48 -5.82,-8.14 -5.82,-16.27l0 -284.93c0,-54.66 -11.63,-97.69 -36.05,-127.93 -24.42,-29.07 -58.15,-44.19 -103.5,-44.19 -44.2,0 -77.92,15.12 -102.35,44.19 -24.42,30.24 -37.22,73.27 -37.22,127.93l0 284.93c0,8.14 -1.16,12.79 -4.65,16.27 -3.49,3.49 -8.15,4.66 -15.12,4.66l-72.1 0c-8.15,0 -12.79,-1.16 -16.28,-4.66 -3.49,-3.48 -4.66,-8.14 -4.66,-16.27l0 -828.04z" class="fil2" id="6"></path>
   <path d="M5776.62 181.42c0,-4.65 -1.15,-8.14 -2.32,-10.47 -2.33,-1.16 -5.82,-2.33 -11.63,-2.33l-218.65 0c-9.3,0 -16.27,-2.32 -19.77,-5.81 -3.49,-3.49 -5.81,-9.3 -5.81,-19.77l0 -59.32c0,-10.47 2.32,-17.44 5.81,-20.93 3.49,-3.49 10.47,-4.65 19.77,-4.65l581.49 0c9.3,0 16.28,0.15 19.77,4.65 3.49,3.49 5.82,10.47 5.82,20.93l0 59.32c0,10.47 -2.33,16.27 -5.82,19.77 -3.48,3.49 -10.47,5.81 -19.77,5.81l-218.64 0c-5.82,0 -9.3,1.16 -10.47,2.33 -2.33,2.33 -3.49,5.82 -3.49,10.47l0 665.22c0,10.47 -2.33,16.28 -5.82,19.77 -3.48,3.49 -10.47,5.82 -19.77,5.82l-65.13 0c-9.3,0 -16.27,-2.33 -19.77,-5.82 -3.49,-3.48 -5.82,-9.3 -5.82,-19.77l0 -665.22z" class="fil2" id="7"></path>
   <path d="M6190.64 330.28c0,-10.47 1.16,-18.6 4.66,-22.09 3.49,-3.49 9.3,-5.81 19.77,-5.81l62.8 0c10.48,0 17.45,2.32 20.94,5.81 3.48,4.66 4.65,11.63 4.65,22.09l0 41.87c36.05,-54.66 91.88,-81.4 167.48,-81.4l10.47 0c10.47,0 18.6,2.32 22.09,5.81 3.49,4.66 5.81,12.79 5.81,23.26l0 56.98c0,10.48 -2.32,18.61 -5.81,22.1 -4.66,4.65 -11.63,6.97 -22.09,6.97l-26.75 0c-50.01,0 -88.39,12.79 -112.81,39.54 -25.59,26.75 -38.38,70.94 -38.38,130.25l0 275.63c0,8.14 -1.16,12.79 -4.65,16.27 -3.49,3.49 -8.15,4.66 -15.12,4.66l-72.1 0c-8.15,0 -12.79,-1.16 -16.28,-4.66 -3.49,-3.48 -4.66,-8.14 -4.66,-16.27l0 -521.02z" class="fil2" id="8"></path>
   <path d="M6618.62 103.51c0,-20.93 6.97,-38.38 19.77,-52.34 12.79,-12.79 30.24,-19.77 51.17,-19.77 20.93,0 38.38,6.97 52.34,19.77 12.79,13.96 19.77,31.41 19.77,52.34 0,19.77 -6.97,37.22 -19.77,50.01 -13.96,13.96 -31.41,20.93 -52.34,20.93 -20.93,0 -38.38,-6.97 -51.17,-20.93 -12.79,-12.79 -19.77,-30.24 -19.77,-50.01zm15.11 224.45c0,-10.47 2.33,-17.44 5.82,-20.93 3.49,-3.49 10.47,-4.65 19.77,-4.65l61.64 0c9.31,0 16.28,1.15 19.78,4.65 3.48,3.49 5.81,10.47 5.81,20.93l0 518.69c0,10.47 -2.33,16.28 -5.81,19.77 -3.49,3.49 -10.47,5.82 -19.78,5.82l-61.64 0c-9.3,0 -16.27,-2.33 -19.77,-5.82 -3.49,-3.48 -5.82,-9.3 -5.82,-19.77l0 -518.69z" class="fil2" id="9"></path>
   <path d="M7254.77 832.69c-17.45,17.45 -38.38,29.08 -63.97,37.22 -26.75,8.15 -54.65,12.79 -84.9,12.79 -41.86,0 -79.08,-6.97 -111.65,-22.09 -33.72,-15.12 -59.31,-36.05 -77.91,-65.13 -18.61,-27.9 -27.91,-61.64 -27.91,-101.17 0,-39.54 9.3,-73.27 29.08,-102.35 18.6,-27.91 44.19,-48.84 76.75,-63.97 32.57,-15.12 69.79,-22.09 111.65,-22.09 29.08,0 56.98,4.66 83.73,12.79 26.75,8.14 47.68,20.93 65.13,37.22 -1.16,-53.5 -15.12,-94.2 -41.87,-122.11 -26.74,-27.91 -63.96,-41.87 -112.8,-41.87 -11.63,0 -25.59,0.16 -40.71,2.33 -16.28,0.16 -26.75,2.33 -32.56,2.33 -5.82,0 -10.48,-1.16 -13.96,-4.66 -3.49,-3.48 -5.82,-8.14 -6.98,-16.27l-6.97 -51.17 0 -5.82c0,-5.81 2.33,-11.63 5.81,-15.12 3.49,-3.48 8.15,-5.81 16.28,-6.97 12.79,-2.33 26.75,-4.66 44.19,-5.81 16.28,-1.16 31.41,-2.33 46.53,-2.33 86.06,0 150.02,24.42 193.05,72.1 41.86,48.84 62.8,118.62 62.8,208.17l0 282.6c0,8.14 -1.16,12.79 -4.66,16.27 -3.49,3.49 -8.14,4.66 -15.12,4.66l-72.1 0c-6.97,0 -11.63,-1.16 -15.11,-4.66 -3.49,-3.48 -5.82,-8.14 -5.82,-16.27l0 -18.61zm-250.04 -138.39c0,22.09 5.82,40.7 17.45,56.98 10.47,16.28 25.59,29.08 45.35,37.22 18.61,8.14 39.54,12.79 62.8,12.79 23.26,0 44.2,-4.66 63.97,-12.79 18.6,-8.14 33.72,-20.93 45.35,-37.22 10.47,-16.28 16.28,-34.89 16.28,-55.83 0,-22.09 -5.82,-40.7 -16.28,-56.98 -11.63,-16.28 -26.75,-29.08 -45.35,-38.38 -19.77,-8.14 -40.71,-12.79 -63.97,-12.79 -23.26,0 -44.19,4.66 -62.8,12.79 -19.77,8.15 -34.89,20.94 -45.35,37.22 -11.63,16.28 -17.45,34.89 -17.45,56.99z" class="fil2" id="10"></path>
   <path d="M7547.84 331.45c0,-10.47 2.33,-17.44 6.98,-22.09 4.66,-4.66 11.63,-6.97 22.09,-6.97l53.5 0c10.47,0 17.44,2.32 23.26,6.97 4.65,4.66 6.97,11.63 6.97,22.09l0 36.05c18.61,-24.42 41.87,-44.19 70.94,-56.98 29.08,-12.79 60.48,-19.77 95.37,-19.77 73.27,0 130.25,23.26 168.63,68.61 38.38,46.52 56.98,112.81 56.98,198.87l0 293.07c0,8.14 -1.16,12.79 -4.65,16.27 -3.49,3.49 -8.15,4.66 -15.12,4.66l-72.1 0c-6.98,0 -11.63,-1.16 -15.12,-4.66 -3.49,-3.48 -5.82,-8.14 -5.82,-16.27l0 -284.93c0,-54.66 -11.63,-97.69 -36.05,-127.93 -24.42,-29.07 -58.15,-44.19 -103.5,-44.19 -44.2,0 -77.92,15.12 -102.35,44.19 -24.42,30.24 -37.22,73.27 -37.22,127.93l0 284.93c0,8.14 -1.16,12.79 -4.65,16.27 -3.49,3.49 -8.15,4.66 -15.12,4.66l-72.1 0c-8.15,0 -12.79,-1.16 -16.28,-4.66 -3.49,-3.48 -4.66,-8.14 -4.66,-16.27l0 -519.85z" class="fil2" id="11"></path>
   <path d="M8309.59 1036.22c1.16,-6.98 3.49,-11.63 6.98,-15.12 3.48,-3.49 6.97,-4.66 12.79,-4.66 3.48,0 11.63,2.33 25.59,5.82 13.95,3.48 27.9,6.97 43.03,10.47 13.96,2.33 30.24,3.49 47.68,3.49 101.18,0 152.35,-51.17 154.67,-153.52 0,-6.97 -2.32,-10.47 -8.14,-10.47l-65.13 0c-70.94,0 -131.41,-11.63 -181.42,-33.72 -50.01,-22.09 -87.22,-54.66 -112.81,-97.69 -26.74,-41.87 -39.53,-91.88 -39.53,-150.03 0,-56.98 12.79,-106.99 38.38,-150.03 25.58,-43.03 63.96,-77.91 113.96,-102.34 50.01,-24.42 110.48,-36.05 181.42,-36.05l161.66 0c9.3,0 16.28,1.15 19.78,4.65 3.48,3.49 5.81,10.47 5.81,20.93l0 536.14c0,90.71 -22.09,159.33 -67.45,205.84 -45.36,46.52 -112.81,69.78 -200.03,69.78 -24.42,0 -50.01,-2.33 -74.43,-6.97 -25.59,-4.66 -46.52,-10.47 -63.97,-17.45 -10.47,-4.65 -15.11,-11.63 -15.11,-20.93 0,-3.49 0,-6.98 1.15,-10.47l15.12 -47.68zm277.96 -267.49c4.65,0 8.14,-1.15 10.47,-3.48 1.16,-1.16 2.32,-4.66 2.32,-10.47l0 -336.1c0,-9.3 -4.65,-13.96 -12.78,-13.96l-59.32 0c-44.19,0 -82.57,6.98 -115.13,20.93 -32.57,13.96 -58.15,34.9 -75.6,62.8 -18.61,27.91 -27.91,61.64 -27.91,102.35 0,56.98 19.78,101.18 58.15,131.41 38.38,31.41 91.88,46.52 160.49,46.52l59.32 0z" class="fil2" id="12"></path>
   <path d="M8895.73 25.59c0,-10.47 2.33,-17.44 5.82,-20.93 3.49,-3.49 10.47,-4.66 19.77,-4.66l61.64 0c9.31,0 16.28,1.16 19.78,4.66 3.48,3.49 5.81,10.47 5.81,20.93l0 821.06c0,10.47 -2.33,16.28 -5.81,19.77 -3.49,3.49 -10.47,5.82 -19.78,5.82l-61.64 0c-9.3,0 -16.27,-2.33 -19.77,-5.82 -3.49,-3.48 -5.82,-9.3 -5.82,-19.77l0 -821.06z" class="fil2" id="13"></path>
   <path d="M9678.42 779.2c3.48,5.81 4.65,10.47 4.65,16.27 0,8.15 -4.65,13.96 -12.79,19.78 -62.79,46.52 -137.22,69.78 -223.28,69.78 -58.16,0 -109.32,-12.79 -153.52,-39.54 -45.35,-25.59 -79.08,-60.47 -103.5,-105.83 -24.42,-45.35 -37.22,-95.36 -37.22,-150.03 0,-56.98 12.79,-109.32 37.22,-154.67 24.42,-45.36 59.31,-81.41 102.34,-108.15 43.04,-25.59 91.88,-38.38 146.53,-38.38 53.5,0 101.18,12.79 144.22,37.22 41.86,25.59 74.42,60.47 98.84,103.5 23.27,44.2 34.9,93.04 34.9,146.53l0 19.78c0,8.14 -1.16,12.79 -4.66,16.27 -3.49,3.49 -8.14,4.66 -15.12,4.66l-427.97 0c3.49,32.56 12.79,61.64 29.08,87.22 16.28,25.59 38.38,45.35 65.13,59.31 26.74,15.12 56.98,22.09 91.87,22.09 56.98,0 111.65,-17.44 163.98,-52.34 6.97,-4.65 12.79,-6.97 18.6,-6.97 5.82,0 11.63,3.49 15.12,10.47l25.59 43.04zm-81.41 -250.04c-6.97,-43.03 -24.42,-79.09 -52.33,-105.83 -29.08,-26.75 -63.97,-39.54 -107,-39.54 -40.7,0 -75.59,12.79 -104.66,37.22 -29.08,25.59 -50.01,61.64 -60.47,108.15l324.46 0z" class="fil2" id="14"></path>
   <path d="M109.72 8140.46c0,-10.47 2.32,-17.44 5.81,-20.93 3.49,-3.49 10.47,-4.65 19.78,-4.65l227.94 0c96.53,0 170.96,17.44 225.61,51.16 53.5,34.89 80.25,89.55 80.25,165.15 0,47.68 -10.47,84.9 -31.4,112.81 -20.94,29.07 -51.17,50.01 -89.55,63.96 44.19,10.48 79.08,31.41 105.83,62.8 25.59,31.41 38.38,70.94 38.38,119.78 0,82.58 -27.91,143.05 -83.73,181.43 -56.98,38.38 -137.23,56.98 -241.9,56.98l-231.43 0c-9.31,0 -16.28,-2.33 -19.78,-5.82 -3.49,-3.48 -5.81,-9.3 -5.81,-19.77l0 -762.91zm261.66 325.64c59.31,0 103.51,-10.47 132.58,-31.41 29.08,-19.77 44.2,-51.16 44.2,-91.87 0,-41.87 -16.28,-72.1 -47.68,-91.88 -32.57,-19.77 -81.41,-29.07 -145.37,-29.07l-115.14 0c-5.82,0 -9.3,1.16 -10.47,3.48 -2.33,2.33 -3.49,5.82 -3.49,10.48l0 216.31c0,4.66 1.16,8.14 3.49,10.47 1.16,2.33 4.65,3.49 10.47,3.49l131.41 0zm-4.65 355.87c47.68,0 87.22,-4.66 117.46,-12.79 29.08,-8.15 51.17,-22.09 66.29,-41.87 13.95,-19.77 20.93,-44.19 20.93,-75.6 0,-43.03 -16.28,-74.43 -48.84,-93.03 -33.72,-17.45 -82.57,-26.75 -146.53,-26.75l-136.07 0c-5.82,0 -9.3,1.16 -10.47,2.33 -2.33,2.33 -3.49,5.82 -3.49,11.63l0 222.13c0,4.66 1.16,8.14 3.49,10.47 1.16,2.33 4.65,3.49 10.47,3.49l126.77 0z" class="fil2"></path>
   <path d="M823.79 8380.04c0,-8.14 1.16,-12.79 4.65,-16.28 3.49,-3.49 8.15,-4.65 15.12,-4.65l72.1 0c6.98,0 12.79,1.15 16.28,4.65 3.49,3.49 4.66,8.15 4.66,16.28l0 284.93c0,115.13 46.52,172.12 138.39,172.12 94.21,0 140.72,-56.99 140.72,-172.12l0 -284.93c0,-8.14 2.33,-12.79 5.81,-16.28 3.49,-3.49 8.15,-4.65 15.12,-4.65l72.1 0c6.98,0 11.63,1.15 15.12,4.65 3.49,3.49 4.66,8.15 4.66,16.28l0 294.23c0,86.06 -22.1,152.34 -65.13,197.71 -43.04,46.52 -105.83,69.78 -188.41,69.78 -81.4,0 -143.04,-23.26 -186.08,-68.61 -43.03,-45.36 -65.12,-111.65 -65.12,-198.87l0 -294.23z" class="fil2" id="1"></path>
   <path d="M1493.66 8160.24c0,-20.93 6.97,-38.38 19.77,-52.34 12.79,-12.79 30.24,-19.77 51.17,-19.77 20.93,0 38.38,6.97 52.34,19.77 12.79,13.96 19.77,31.41 19.77,52.34 0,19.77 -6.97,37.22 -19.77,50.01 -13.96,13.96 -31.41,20.93 -52.34,20.93 -20.93,0 -38.38,-6.97 -51.17,-20.93 -12.79,-12.79 -19.77,-30.24 -19.77,-50.01zm15.11 224.45c0,-10.47 2.33,-17.44 5.82,-20.93 3.49,-3.49 10.47,-4.65 19.77,-4.65l61.64 0c9.31,0 16.28,1.15 19.78,4.65 3.48,3.49 5.81,10.47 5.81,20.93l0 518.69c0,10.47 -2.33,16.28 -5.81,19.77 -3.49,3.49 -10.47,5.82 -19.78,5.82l-61.64 0c-9.3,0 -16.27,-2.33 -19.77,-5.82 -3.49,-3.48 -5.82,-9.3 -5.82,-19.77l0 -518.69z" class="fil2" id="2"></path>
   <path d="M1805.33 8082.31c0,-10.47 2.33,-17.44 5.82,-20.93 3.49,-3.49 10.47,-4.66 19.77,-4.66l61.64 0c9.31,0 16.28,1.16 19.78,4.66 3.48,3.49 5.81,10.47 5.81,20.93l0 821.06c0,10.47 -2.33,16.28 -5.81,19.77 -3.49,3.49 -10.47,5.82 -19.78,5.82l-61.64 0c-9.3,0 -16.27,-2.33 -19.77,-5.82 -3.49,-3.48 -5.82,-9.3 -5.82,-19.77l0 -821.06z" class="fil2" id="3"></path>
   <path d="M2393.81 8928.96c-70.95,0 -131.42,-11.63 -181.43,-34.89 -50,-22.09 -87.21,-54.66 -111.64,-97.69 -25.59,-41.87 -38.38,-91.88 -38.38,-148.86 0,-56.98 12.79,-108.15 38.38,-151.19 25.58,-43.03 63.96,-76.75 113.96,-101.17 50.01,-24.42 110.48,-36.05 181.42,-36.05l60.48 0c4.65,0 8.14,-1.16 10.47,-3.49 1.16,-1.16 2.32,-4.66 2.32,-9.3l0 -264c0,-10.47 2.33,-17.44 5.82,-20.93 3.49,-3.49 10.47,-4.66 19.77,-4.66l61.64 0c9.31,0 16.28,1.16 19.78,4.66 3.48,3.49 5.81,10.47 5.81,20.93l0 822.22c0,9.3 -2.33,15.12 -5.81,18.6 -3.49,3.49 -10.47,5.82 -19.78,5.82l-162.81 0zm62.8 -103.51c4.65,0 8.14,-1.15 10.47,-3.48 1.16,-1.16 2.32,-4.66 2.32,-10.47l0 -336.1c0,-9.3 -4.65,-13.96 -12.78,-13.96l-59.32 0c-43.03,0 -81.4,6.98 -113.96,20.93 -33.73,13.96 -59.31,34.9 -76.76,62.8 -18.61,27.91 -27.91,61.64 -27.91,102.35 0,58.15 19.78,102.35 58.15,132.58 38.38,30.24 91.88,45.35 160.49,45.35l59.32 0z" class="fil2" id="4"></path>
   <path d="M2750.84 8160.24c0,-20.93 6.97,-38.38 19.77,-52.34 12.79,-12.79 30.24,-19.77 51.17,-19.77 20.93,0 38.38,6.97 52.34,19.77 12.79,13.96 19.77,31.41 19.77,52.34 0,19.77 -6.97,37.22 -19.77,50.01 -13.96,13.96 -31.41,20.93 -52.34,20.93 -20.93,0 -38.38,-6.97 -51.17,-20.93 -12.79,-12.79 -19.77,-30.24 -19.77,-50.01zm15.11 224.45c0,-10.47 2.33,-17.44 5.82,-20.93 3.49,-3.49 10.47,-4.65 19.77,-4.65l61.64 0c9.31,0 16.28,1.15 19.78,4.65 3.48,3.49 5.81,10.47 5.81,20.93l0 518.69c0,10.47 -2.33,16.28 -5.81,19.77 -3.49,3.49 -10.47,5.82 -19.78,5.82l-61.64 0c-9.3,0 -16.27,-2.33 -19.77,-5.82 -3.49,-3.48 -5.82,-9.3 -5.82,-19.77l0 -518.69z" class="fil2" id="5"></path>
   <path d="M3062.51 8388.17c0,-10.47 2.33,-17.44 6.98,-22.09 4.66,-4.66 11.63,-6.97 22.09,-6.97l53.5 0c10.47,0 17.44,2.32 23.26,6.97 4.65,4.66 6.97,11.63 6.97,22.09l0 36.05c18.61,-24.42 41.87,-44.19 70.94,-56.98 29.08,-12.79 60.48,-19.77 95.37,-19.77 73.27,0 130.25,23.26 168.63,68.61 38.38,46.52 56.98,112.81 56.98,198.87l0 293.07c0,8.14 -1.16,12.79 -4.65,16.27 -3.49,3.49 -8.15,4.66 -15.12,4.66l-72.1 0c-6.98,0 -11.63,-1.16 -15.12,-4.66 -3.49,-3.48 -5.82,-8.14 -5.82,-16.27l0 -284.93c0,-54.66 -11.63,-97.69 -36.05,-127.93 -24.42,-29.07 -58.15,-44.19 -103.5,-44.19 -44.2,0 -77.92,15.12 -102.35,44.19 -24.42,30.24 -37.22,73.27 -37.22,127.93l0 284.93c0,8.14 -1.16,12.79 -4.65,16.27 -3.49,3.49 -8.15,4.66 -15.12,4.66l-72.1 0c-8.15,0 -12.79,-1.16 -16.28,-4.66 -3.49,-3.48 -4.66,-8.14 -4.66,-16.27l0 -519.85z" class="fil2" id="6"></path>
   <path d="M3824.26 9092.94c1.16,-6.98 3.49,-11.63 6.98,-15.12 3.48,-3.49 6.97,-4.66 12.79,-4.66 3.48,0 11.63,2.33 25.59,5.82 13.95,3.48 27.9,6.97 43.03,10.47 13.96,2.33 30.24,3.49 47.68,3.49 101.18,0 152.35,-51.17 154.67,-153.52 0,-6.97 -2.32,-10.47 -8.14,-10.47l-65.13 0c-70.94,0 -131.41,-11.63 -181.42,-33.72 -50.01,-22.09 -87.22,-54.66 -112.81,-97.69 -26.74,-41.87 -39.53,-91.88 -39.53,-150.03 0,-56.98 12.79,-106.99 38.38,-150.03 25.58,-43.03 63.96,-77.91 113.96,-102.34 50.01,-24.42 110.48,-36.05 181.42,-36.05l161.66 0c9.3,0 16.28,1.15 19.78,4.65 3.48,3.49 5.81,10.47 5.81,20.93l0 536.14c0,90.71 -22.09,159.33 -67.45,205.84 -45.36,46.52 -112.81,69.78 -200.03,69.78 -24.42,0 -50.01,-2.33 -74.43,-6.97 -25.59,-4.66 -46.52,-10.47 -63.97,-17.45 -10.47,-4.65 -15.11,-11.63 -15.11,-20.93 0,-3.49 0,-6.98 1.15,-10.47l15.12 -47.68zm277.96 -267.49c4.65,0 8.14,-1.15 10.47,-3.48 1.16,-1.16 2.32,-4.66 2.32,-10.47l0 -336.1c0,-9.3 -4.65,-13.96 -12.78,-13.96l-59.32 0c-44.19,0 -82.57,6.98 -115.13,20.93 -32.57,13.96 -58.15,34.9 -75.6,62.8 -18.61,27.91 -27.91,61.64 -27.91,102.35 0,56.98 19.78,101.18 58.15,131.41 38.38,31.41 91.88,46.52 160.49,46.52l59.32 0z" class="fil2" id="7"></path>
   <path d="M4740.7 8140.46c0,-10.47 2.32,-17.44 5.81,-20.93 3.49,-3.49 10.47,-4.65 19.78,-4.65l65.12 0c9.3,0 16.28,1.15 19.78,4.65 3.48,3.49 5.81,10.47 5.81,20.93l0 762.91c0,10.47 -2.33,16.28 -5.81,19.77 -3.49,3.49 -10.48,5.82 -19.78,5.82l-65.12 0c-9.31,0 -16.28,-2.33 -19.78,-5.82 -3.49,-3.48 -5.81,-9.3 -5.81,-19.77l0 -762.91z" class="fil2" id="8"></path>
   <path d="M5051.2 8388.17c0,-10.47 2.33,-17.44 6.98,-22.09 4.66,-4.66 11.63,-6.97 22.09,-6.97l53.5 0c10.47,0 17.44,2.32 23.26,6.97 4.65,4.66 6.97,11.63 6.97,22.09l0 36.05c18.61,-24.42 41.87,-44.19 70.94,-56.98 29.08,-12.79 60.48,-19.77 95.37,-19.77 73.27,0 130.25,23.26 168.63,68.61 38.38,46.52 56.98,112.81 56.98,198.87l0 293.07c0,8.14 -1.16,12.79 -4.65,16.27 -3.49,3.49 -8.15,4.66 -15.12,4.66l-72.1 0c-6.98,0 -11.63,-1.16 -15.12,-4.66 -3.49,-3.48 -5.82,-8.14 -5.82,-16.27l0 -284.93c0,-54.66 -11.63,-97.69 -36.05,-127.93 -24.42,-29.07 -58.15,-44.19 -103.5,-44.19 -44.2,0 -77.92,15.12 -102.35,44.19 -24.42,30.24 -37.22,73.27 -37.22,127.93l0 284.93c0,8.14 -1.16,12.79 -4.65,16.27 -3.49,3.49 -8.15,4.66 -15.12,4.66l-72.1 0c-8.15,0 -12.79,-1.16 -16.28,-4.66 -3.49,-3.48 -4.66,-8.14 -4.66,-16.27l0 -519.85z" class="fil2" id="9"></path>
   <path d="M5686.2 8462.61c-10.48,0 -16.28,-2.33 -19.78,-5.81 -3.49,-3.49 -5.81,-10.48 -5.81,-19.78l0 -52.34c0,-9.3 2.32,-16.27 5.81,-19.77 3.49,-3.49 9.3,-5.81 19.78,-5.81l102.34 0 0 -127.93c0,-10.47 2.33,-17.45 5.82,-20.93 3.48,-3.49 10.47,-4.66 19.77,-4.66l60.47 0c9.3,0 16.28,1.16 19.78,4.66 3.48,3.48 5.81,10.47 5.81,20.93l0 127.93 103.51 0c10.47,0 17.44,2.32 20.93,5.81 3.49,3.49 4.66,10.47 4.66,19.77l0 52.34c0,9.3 -1.16,16.28 -4.66,19.78 -3.49,3.48 -10.47,5.81 -20.93,5.81l-103.51 0 0 440.77c0,10.47 -2.33,16.28 -5.81,19.77 -3.49,3.49 -10.48,5.82 -19.78,5.82l-60.47 0c-9.3,0 -16.28,-2.33 -19.77,-5.82 -3.49,-3.48 -5.82,-9.3 -5.82,-19.77l0 -440.77 -102.34 0z" class="fil2" id="10"></path>
   <path d="M6627.04 8835.93c3.48,5.81 4.65,10.47 4.65,16.27 0,8.15 -4.65,13.96 -12.79,19.78 -62.79,46.52 -137.22,69.78 -223.28,69.78 -58.16,0 -109.32,-12.79 -153.52,-39.54 -45.35,-25.59 -79.08,-60.47 -103.5,-105.83 -24.42,-45.35 -37.22,-95.36 -37.22,-150.03 0,-56.98 12.79,-109.32 37.22,-154.67 24.42,-45.36 59.31,-81.41 102.34,-108.15 43.04,-25.59 91.88,-38.38 146.53,-38.38 53.5,0 101.18,12.79 144.22,37.22 41.86,25.59 74.42,60.47 98.84,103.5 23.27,44.2 34.9,93.04 34.9,146.53l0 19.78c0,8.14 -1.16,12.79 -4.66,16.27 -3.49,3.49 -8.14,4.66 -15.12,4.66l-427.97 0c3.49,32.56 12.79,61.64 29.08,87.22 16.28,25.59 38.38,45.35 65.13,59.31 26.74,15.12 56.98,22.09 91.87,22.09 56.98,0 111.65,-17.44 163.98,-52.34 6.97,-4.65 12.79,-6.97 18.6,-6.97 5.82,0 11.63,3.49 15.12,10.47l25.59 43.04zm-81.41 -250.04c-6.97,-43.03 -24.42,-79.09 -52.33,-105.83 -29.08,-26.75 -63.97,-39.54 -107,-39.54 -40.7,0 -75.59,12.79 -104.66,37.22 -29.08,25.59 -50.01,61.64 -60.47,108.15l324.46 0z" class="fil2" id="11"></path>
   <path d="M6809.62 8082.31c0,-10.47 2.33,-17.44 5.82,-20.93 3.49,-3.49 10.47,-4.66 19.77,-4.66l61.64 0c9.31,0 16.28,1.16 19.78,4.66 3.48,3.49 5.81,10.47 5.81,20.93l0 821.06c0,10.47 -2.33,16.28 -5.81,19.77 -3.49,3.49 -10.47,5.82 -19.78,5.82l-61.64 0c-9.3,0 -16.27,-2.33 -19.77,-5.82 -3.49,-3.48 -5.82,-9.3 -5.82,-19.77l0 -821.06z" class="fil2" id="12"></path>
   <path d="M7106.18 8082.31c0,-10.47 2.33,-17.44 5.82,-20.93 3.49,-3.49 10.47,-4.66 19.77,-4.66l61.64 0c9.31,0 16.28,1.16 19.78,4.66 3.48,3.49 5.81,10.47 5.81,20.93l0 821.06c0,10.47 -2.33,16.28 -5.81,19.77 -3.49,3.49 -10.47,5.82 -19.78,5.82l-61.64 0c-9.3,0 -16.27,-2.33 -19.77,-5.82 -3.49,-3.48 -5.82,-9.3 -5.82,-19.77l0 -821.06z" class="fil2" id="13"></path>
   <path d="M7387.63 8160.24c0,-20.93 6.97,-38.38 19.77,-52.34 12.79,-12.79 30.24,-19.77 51.17,-19.77 20.93,0 38.38,6.97 52.34,19.77 12.79,13.96 19.77,31.41 19.77,52.34 0,19.77 -6.97,37.22 -19.77,50.01 -13.96,13.96 -31.41,20.93 -52.34,20.93 -20.93,0 -38.38,-6.97 -51.17,-20.93 -12.79,-12.79 -19.77,-30.24 -19.77,-50.01zm15.11 224.45c0,-10.47 2.33,-17.44 5.82,-20.93 3.49,-3.49 10.47,-4.65 19.77,-4.65l61.64 0c9.31,0 16.28,1.15 19.78,4.65 3.48,3.49 5.81,10.47 5.81,20.93l0 518.69c0,10.47 -2.33,16.28 -5.81,19.77 -3.49,3.49 -10.47,5.82 -19.78,5.82l-61.64 0c-9.3,0 -16.27,-2.33 -19.77,-5.82 -3.49,-3.48 -5.82,-9.3 -5.82,-19.77l0 -518.69z" class="fil2" id="14"></path>
   <path d="M7776.06 9092.94c1.16,-6.98 3.49,-11.63 6.98,-15.12 3.48,-3.49 6.97,-4.66 12.79,-4.66 3.48,0 11.63,2.33 25.59,5.82 13.95,3.48 27.9,6.97 43.03,10.47 13.96,2.33 30.24,3.49 47.68,3.49 101.18,0 152.35,-51.17 154.67,-153.52 0,-6.97 -2.32,-10.47 -8.14,-10.47l-65.13 0c-70.94,0 -131.41,-11.63 -181.42,-33.72 -50.01,-22.09 -87.22,-54.66 -112.81,-97.69 -26.74,-41.87 -39.53,-91.88 -39.53,-150.03 0,-56.98 12.79,-106.99 38.38,-150.03 25.58,-43.03 63.96,-77.91 113.96,-102.34 50.01,-24.42 110.48,-36.05 181.42,-36.05l161.66 0c9.3,0 16.28,1.15 19.78,4.65 3.48,3.49 5.81,10.47 5.81,20.93l0 536.14c0,90.71 -22.09,159.33 -67.45,205.84 -45.36,46.52 -112.81,69.78 -200.03,69.78 -24.42,0 -50.01,-2.33 -74.43,-6.97 -25.59,-4.66 -46.52,-10.47 -63.97,-17.45 -10.47,-4.65 -15.11,-11.63 -15.11,-20.93 0,-3.49 0,-6.98 1.15,-10.47l15.12 -47.68zm277.96 -267.49c4.65,0 8.14,-1.15 10.47,-3.48 1.16,-1.16 2.32,-4.66 2.32,-10.47l0 -336.1c0,-9.3 -4.65,-13.96 -12.78,-13.96l-59.32 0c-44.19,0 -82.57,6.98 -115.13,20.93 -32.57,13.96 -58.15,34.9 -75.6,62.8 -18.61,27.91 -27.91,61.64 -27.91,102.35 0,56.98 19.78,101.18 58.15,131.41 38.38,31.41 91.88,46.52 160.49,46.52l59.32 0z" class="fil2" id="15"></path>
   <path d="M8848.33 8835.93c3.48,5.81 4.65,10.47 4.65,16.27 0,8.15 -4.65,13.96 -12.79,19.78 -62.79,46.52 -137.22,69.78 -223.28,69.78 -58.16,0 -109.32,-12.79 -153.52,-39.54 -45.35,-25.59 -79.08,-60.47 -103.5,-105.83 -24.42,-45.35 -37.22,-95.36 -37.22,-150.03 0,-56.98 12.79,-109.32 37.22,-154.67 24.42,-45.36 59.31,-81.41 102.34,-108.15 43.04,-25.59 91.88,-38.38 146.53,-38.38 53.5,0 101.18,12.79 144.22,37.22 41.86,25.59 74.42,60.47 98.84,103.5 23.27,44.2 34.9,93.04 34.9,146.53l0 19.78c0,8.14 -1.16,12.79 -4.66,16.27 -3.49,3.49 -8.14,4.66 -15.12,4.66l-427.97 0c3.49,32.56 12.79,61.64 29.08,87.22 16.28,25.59 38.38,45.35 65.13,59.31 26.74,15.12 56.98,22.09 91.87,22.09 56.98,0 111.65,-17.44 163.98,-52.34 6.97,-4.65 12.79,-6.97 18.6,-6.97 5.82,0 11.63,3.49 15.12,10.47l25.59 43.04zm-81.41 -250.04c-6.97,-43.03 -24.42,-79.09 -52.33,-105.83 -29.08,-26.75 -63.97,-39.54 -107,-39.54 -40.7,0 -75.59,12.79 -104.66,37.22 -29.08,25.59 -50.01,61.64 -60.47,108.15l324.46 0z" class="fil2" id="16"></path>
   <path d="M9030.9 8388.17c0,-10.47 2.33,-17.44 6.98,-22.09 4.66,-4.66 11.63,-6.97 22.09,-6.97l53.5 0c10.47,0 17.44,2.32 23.26,6.97 4.65,4.66 6.97,11.63 6.97,22.09l0 36.05c18.61,-24.42 41.87,-44.19 70.94,-56.98 29.08,-12.79 60.48,-19.77 95.37,-19.77 73.27,0 130.25,23.26 168.63,68.61 38.38,46.52 56.98,112.81 56.98,198.87l0 293.07c0,8.14 -1.16,12.79 -4.65,16.27 -3.49,3.49 -8.15,4.66 -15.12,4.66l-72.1 0c-6.98,0 -11.63,-1.16 -15.12,-4.66 -3.49,-3.48 -5.82,-8.14 -5.82,-16.27l0 -284.93c0,-54.66 -11.63,-97.69 -36.05,-127.93 -24.42,-29.07 -58.15,-44.19 -103.5,-44.19 -44.2,0 -77.92,15.12 -102.35,44.19 -24.42,30.24 -37.22,73.27 -37.22,127.93l0 284.93c0,8.14 -1.16,12.79 -4.65,16.27 -3.49,3.49 -8.15,4.66 -15.12,4.66l-72.1 0c-8.15,0 -12.79,-1.16 -16.28,-4.66 -3.49,-3.48 -4.66,-8.14 -4.66,-16.27l0 -519.85z" class="fil2" id="17"></path>
   <path d="M10181.08 8848.72c2.33,3.48 3.49,6.97 3.49,11.63 0,8.14 -3.49,13.95 -11.63,19.77 -27.91,19.77 -56.98,34.89 -88.39,45.35 -31.4,10.47 -68.61,16.28 -111.65,16.28 -54.65,0 -104.66,-12.79 -150.02,-37.22 -45.36,-24.42 -81.41,-59.31 -107,-104.66 -26.74,-45.36 -39.53,-95.37 -39.53,-152.35 0,-58.15 12.79,-110.48 39.53,-157 26.75,-45.35 62.8,-81.41 108.16,-106.99 45.35,-25.59 95.36,-38.38 150.02,-38.38 43.04,0 80.25,4.65 111.65,15.11 31.41,10.48 60.47,25.59 88.39,45.36 6.97,5.81 10.47,11.63 10.47,18.6 0,5.82 -1.16,10.47 -4.65,16.28l-33.73 51.17c-4.65,6.97 -9.3,10.47 -15.11,10.47 -3.49,0 -9.31,-2.33 -17.45,-6.98 -47.68,-29.07 -94.2,-43.03 -137.23,-43.03 -36.05,0 -67.45,8.14 -95.36,24.42 -27.91,17.45 -50.01,40.71 -65.13,69.78 -15.11,29.08 -23.26,62.8 -23.26,100.02 0,34.89 8.15,66.29 23.26,95.36 15.12,29.08 37.22,51.17 65.13,67.46 27.91,17.44 59.31,25.59 95.36,25.59 25.59,0 51.17,-4.66 75.6,-12.79 24.42,-8.15 45.35,-18.61 63.97,-31.41 8.14,-4.65 12.79,-6.97 16.27,-6.97 5.82,0 10.48,3.49 16.28,11.63l32.56 53.5z" class="fil2" id="18"></path>
   <path d="M10797.46 8835.93c3.48,5.81 4.65,10.47 4.65,16.27 0,8.15 -4.65,13.96 -12.79,19.78 -62.79,46.52 -137.22,69.78 -223.28,69.78 -58.16,0 -109.32,-12.79 -153.52,-39.54 -45.35,-25.59 -79.08,-60.47 -103.5,-105.83 -24.42,-45.35 -37.22,-95.36 -37.22,-150.03 0,-56.98 12.79,-109.32 37.22,-154.67 24.42,-45.36 59.31,-81.41 102.34,-108.15 43.04,-25.59 91.88,-38.38 146.53,-38.38 53.5,0 101.18,12.79 144.22,37.22 41.86,25.59 74.42,60.47 98.84,103.5 23.27,44.2 34.9,93.04 34.9,146.53l0 19.78c0,8.14 -1.16,12.79 -4.66,16.27 -3.49,3.49 -8.14,4.66 -15.12,4.66l-427.97 0c3.49,32.56 12.79,61.64 29.08,87.22 16.28,25.59 38.38,45.35 65.13,59.31 26.74,15.12 56.98,22.09 91.87,22.09 56.98,0 111.65,-17.44 163.98,-52.34 6.97,-4.65 12.79,-6.97 18.6,-6.97 5.82,0 11.63,3.49 15.12,10.47l25.59 43.04zm-81.41 -250.04c-6.97,-43.03 -24.42,-79.09 -52.33,-105.83 -29.08,-26.75 -63.97,-39.54 -107,-39.54 -40.7,0 -75.59,12.79 -104.66,37.22 -29.08,25.59 -50.01,61.64 -60.47,108.15l324.46 0z" class="fil2" id="19"></path>
  </g>
 </g>
</svg>
